<svg width="165" height="32" viewBox="0 0 165 32" fill="none" xmlns="http://www.w3.org/2000/svg">
<path d="M1.09193 18.3459L1.83966 21.1333C2.71321 24.3867 3.15143 26.0141 4.14213 27.0687C4.92406 27.9009 5.93565 28.4833 7.04915 28.7423C8.46072 29.0712 10.0921 28.6355 13.3549 27.7641C16.6148 26.8927 18.2462 26.457 19.3035 25.4687C19.3912 25.386 19.4761 25.3013 19.558 25.2148C19.0654 25.1705 18.5758 25.0982 18.0915 24.9984C17.0849 24.7993 15.8888 24.479 14.4743 24.101L14.3196 24.0592L14.2834 24.0505C12.7446 23.6379 11.4589 23.2945 10.432 22.9252C9.35163 22.5356 8.37105 22.0552 7.53655 21.2761C6.38866 20.2033 5.5854 18.8151 5.22829 17.2869C4.96796 16.1775 5.04316 15.0896 5.24564 13.9628C5.43944 12.8822 5.78655 11.5866 6.20308 10.0357L6.97684 7.15887L7.00287 7.05788C4.22602 7.80378 2.76383 8.24526 1.78904 9.15563C0.953801 9.93623 0.369445 10.9464 0.109908 12.0584C-0.219844 13.4651 0.216932 15.0925 1.09193 18.3459Z" fill="#57A961"/>
<path fill-rule="evenodd" clip-rule="evenodd" d="M27.2334 12.5735L26.4842 15.3609C25.6092 18.6142 25.1725 20.2417 24.1818 21.2963C23.4 22.129 22.3884 22.7119 21.2747 22.9713C21.1349 23.004 20.9927 23.029 20.8481 23.0463C19.5247 23.2094 17.9093 22.778 14.9704 21.9931C11.7091 21.1203 10.0777 20.6846 9.02043 19.6963C8.18544 18.9161 7.6011 17.9064 7.3413 16.7949C7.01155 15.3868 7.44832 13.7609 8.32332 10.5075L9.07105 7.7201L9.42394 6.41442C10.082 4.01081 10.5246 2.68782 11.3735 1.78322C12.1554 0.951045 13.167 0.368669 14.2805 0.109639C15.6921 -0.219306 17.3235 0.216402 20.5863 1.08926C23.8462 1.96068 25.4776 2.39638 26.5349 3.38322C27.3701 4.16382 27.9544 5.17403 28.214 6.28601C28.5437 7.69413 28.107 9.3201 27.2334 12.5735ZM13.0903 11.2606C13.1272 11.1233 13.1908 10.9946 13.2776 10.8819C13.3644 10.7692 13.4726 10.6746 13.596 10.6036C13.7194 10.5326 13.8557 10.4865 13.997 10.468C14.1382 10.4496 14.2818 10.4591 14.4194 10.4959L21.4049 12.3643C21.5461 12.3977 21.6792 12.459 21.7963 12.5447C21.9133 12.6303 22.0119 12.7385 22.0863 12.8629C22.1606 12.9873 22.2092 13.1252 22.2291 13.2687C22.249 13.4121 22.2399 13.558 22.2022 13.6979C22.1646 13.8377 22.0991 13.9686 22.0099 14.0828C21.9206 14.1969 21.8092 14.292 21.6824 14.3625C21.5556 14.4329 21.4159 14.4773 21.2716 14.4929C21.1273 14.5085 20.9813 14.4951 20.8423 14.4534L13.8568 12.5865C13.5792 12.5121 13.3425 12.3308 13.1988 12.0825C13.0551 11.8341 13.016 11.5376 13.0903 11.2606ZM11.9679 15.4431C12.0425 15.1662 12.2242 14.9301 12.4732 14.7867C12.7221 14.6433 13.0179 14.6044 13.2956 14.6784L17.4869 15.7995C17.6288 15.8321 17.7627 15.893 17.8805 15.9784C17.9984 16.0637 18.0978 16.1719 18.1728 16.2965C18.2478 16.421 18.2969 16.5593 18.3172 16.7032C18.3374 16.8471 18.3284 16.9935 18.2908 17.1339C18.2531 17.2742 18.1874 17.4055 18.0978 17.52C18.0081 17.6345 17.8962 17.7298 17.7688 17.8002C17.6415 17.8706 17.5012 17.9147 17.3563 17.9299C17.2115 17.9451 17.0651 17.931 16.9258 17.8885L12.7345 16.769C12.5969 16.7322 12.4679 16.6686 12.3548 16.5821C12.2418 16.4955 12.147 16.3876 12.0759 16.2644C12.0047 16.1413 11.9585 16.0054 11.94 15.8645C11.9215 15.7235 11.931 15.5804 11.9679 15.4431Z" fill="#57A961"/>
<path d="M47.8197 25.248H42.0578V9.87411H36.5388V4.68024H53.547L53.1305 9.87411H47.8197V25.248Z" fill="url(#paint0_linear_3_58)"/>
<path d="M68.6494 25.248H63.4081V24.1746C62.4015 25.0056 60.9436 25.5942 59.1734 25.5942C55.8412 25.5942 54.0015 23.8629 54.0015 20.9544C54.0015 17.8727 56.2924 16.2106 59.9717 16.2106C61.1866 16.2106 62.5056 16.4184 63.2345 16.6954V16.4184C63.2345 15.0334 62.332 14.4793 60.1453 14.4793C58.5139 14.4793 56.5007 14.9295 55.4246 15.5181L55.2164 10.7398C56.7436 10.0472 58.8957 9.66636 61.013 9.66636C66.0114 9.66636 68.6494 11.6747 68.6494 16.1068V25.248ZM63.2345 21.4045V19.881C62.7486 19.6732 61.9849 19.5347 61.3949 19.5347C60.0759 19.5347 59.4858 19.9502 59.4858 20.8851C59.4858 21.6815 59.937 22.0278 61.1866 22.0278C61.8808 22.0278 62.7486 21.7854 63.2345 21.4045Z" fill="url(#paint1_linear_3_58)"/>
<path d="M82.5846 10.4628L81.7516 14.9295C80.7797 14.4101 79.183 14.0638 77.7946 14.0638C76.9962 14.0638 76.6838 14.237 76.6838 14.6178C76.6838 15.6566 83.2442 15.2065 83.2442 20.4004C83.2442 23.1704 81.3004 25.5942 76.5103 25.5942C74.3235 25.5942 72.0326 25.0748 70.8524 24.2784L71.1648 19.6386C72.2756 20.435 74.4276 21.1967 76.4409 21.1967C77.2392 21.1967 77.5516 21.0236 77.5516 20.6427C77.5516 19.604 70.9913 20.0541 70.9913 14.8256C70.9913 11.8824 73.664 9.66636 77.864 9.66636C79.6689 9.66636 81.5433 9.94336 82.5846 10.4628Z" fill="url(#paint2_linear_3_58)"/>
<path d="M101.344 10.1165L96.5196 16.1068L101.449 25.248H95.0965L92.2502 19.9502L90.7924 21.7854V25.248H85.2387V3.50297L90.7924 3.29521V16.6608H90.9659C91.4866 15.5181 92.3543 14.0638 93.6733 12.2979L95.4436 9.90874L101.344 10.1165Z" fill="url(#paint3_linear_3_58)"/>
<path d="M116.212 19.0153H107.187C107.708 20.2272 109.027 20.7812 111.457 20.7812C112.845 20.7812 114.824 20.4004 116.004 19.7771L116.212 24.4516C114.962 25.1787 112.671 25.5942 111.04 25.5942C104.619 25.5942 101.356 22.4779 101.356 17.5957C101.356 12.7827 104.723 9.66636 109.235 9.66636C113.366 9.66636 116.386 12.0902 116.386 16.5223C116.386 17.1455 116.316 18.1843 116.212 19.0153ZM109.27 13.5791C107.951 13.5791 107.222 14.4793 106.979 15.9683H111.248V15.5874C111.248 14.3408 110.519 13.5791 109.27 13.5791Z" fill="url(#paint4_linear_3_58)"/>
<path d="M132.444 25.248H127.203V24.1746C126.196 25.0056 124.738 25.5942 122.968 25.5942C119.636 25.5942 117.796 23.8629 117.796 20.9544C117.796 17.8727 120.087 16.2106 123.766 16.2106C124.981 16.2106 126.3 16.4184 127.029 16.6954V16.4184C127.029 15.0334 126.126 14.4793 123.94 14.4793C122.308 14.4793 120.295 14.9295 119.219 15.5181L119.011 10.7398C120.538 10.0472 122.69 9.66636 124.807 9.66636C129.806 9.66636 132.444 11.6747 132.444 16.1068V25.248ZM127.029 21.4045V19.881C126.543 19.6732 125.779 19.5347 125.189 19.5347C123.87 19.5347 123.28 19.9502 123.28 20.8851C123.28 21.6815 123.731 22.0278 124.981 22.0278C125.675 22.0278 126.543 21.7854 127.029 21.4045Z" fill="url(#paint5_linear_3_58)"/>
<path d="M146.379 10.4628L145.546 14.9295C144.574 14.4101 142.977 14.0638 141.589 14.0638C140.791 14.0638 140.478 14.237 140.478 14.6178C140.478 15.6566 147.039 15.2065 147.039 20.4004C147.039 23.1704 145.095 25.5942 140.305 25.5942C138.118 25.5942 135.827 25.0748 134.647 24.2784L134.959 19.6386C136.07 20.435 138.222 21.1967 140.235 21.1967C141.034 21.1967 141.346 21.0236 141.346 20.6427C141.346 19.604 134.786 20.0541 134.786 14.8256C134.786 11.8824 137.458 9.66636 141.658 9.66636C143.463 9.66636 145.338 9.94336 146.379 10.4628Z" fill="url(#paint6_linear_3_58)"/>
<path d="M165 10.0126L160.731 23.0319C158.856 28.8144 155.385 31.6537 151.775 32L149.45 27.6718C151.428 27.4294 152.955 26.4945 153.65 25.248L147.818 10.1165L153.684 9.90874L155.489 14.9987C156.149 16.9031 156.669 18.5998 156.878 19.7425H157.051C157.19 18.5998 157.607 16.9031 158.127 14.9641L159.412 10.0126H165Z" fill="url(#paint7_linear_3_58)"/>
<defs>
<linearGradient id="paint0_linear_3_58" x1="36.157" y1="14.4274" x2="166.322" y2="14.4274" gradientUnits="userSpaceOnUse">
<stop stop-color="#56B36A"/>
<stop offset="1" stop-color="#A4D6D6"/>
</linearGradient>
<linearGradient id="paint1_linear_3_58" x1="36.157" y1="14.4274" x2="166.322" y2="14.4274" gradientUnits="userSpaceOnUse">
<stop stop-color="#56B36A"/>
<stop offset="1" stop-color="#A4D6D6"/>
</linearGradient>
<linearGradient id="paint2_linear_3_58" x1="36.157" y1="14.4274" x2="166.322" y2="14.4274" gradientUnits="userSpaceOnUse">
<stop stop-color="#56B36A"/>
<stop offset="1" stop-color="#A4D6D6"/>
</linearGradient>
<linearGradient id="paint3_linear_3_58" x1="36.157" y1="14.4274" x2="166.322" y2="14.4274" gradientUnits="userSpaceOnUse">
<stop stop-color="#56B36A"/>
<stop offset="1" stop-color="#A4D6D6"/>
</linearGradient>
<linearGradient id="paint4_linear_3_58" x1="36.157" y1="14.4274" x2="166.322" y2="14.4274" gradientUnits="userSpaceOnUse">
<stop stop-color="#56B36A"/>
<stop offset="1" stop-color="#A4D6D6"/>
</linearGradient>
<linearGradient id="paint5_linear_3_58" x1="36.157" y1="14.4274" x2="166.322" y2="14.4274" gradientUnits="userSpaceOnUse">
<stop stop-color="#56B36A"/>
<stop offset="1" stop-color="#A4D6D6"/>
</linearGradient>
<linearGradient id="paint6_linear_3_58" x1="36.157" y1="14.4274" x2="166.322" y2="14.4274" gradientUnits="userSpaceOnUse">
<stop stop-color="#56B36A"/>
<stop offset="1" stop-color="#A4D6D6"/>
</linearGradient>
<linearGradient id="paint7_linear_3_58" x1="36.157" y1="14.4274" x2="166.322" y2="14.4274" gradientUnits="userSpaceOnUse">
<stop stop-color="#56B36A"/>
<stop offset="1" stop-color="#A4D6D6"/>
</linearGradient>
</defs>
</svg>
